<svg xmlns="http://www.w3.org/2000/svg" viewBox="0 0 100 100">
  <rect width="100" height="100" fill="none"/>
  <path d="M25 15 C15 15, 10 20, 10 30 L10 45 C10 50, 5 50, 5 50 C5 50, 10 50, 10 55 L10 70 C10 80, 15 85, 25 85" fill="none" stroke="#1e3a8a" stroke-width="8" stroke-linecap="round"/>
  <path d="M75 15 C85 15, 90 20, 90 30 L90 45 C90 50, 95 50, 95 50 C95 50, 90 50, 90 55 L90 70 C90 80, 85 85, 75 85" fill="none" stroke="#1e3a8a" stroke-width="8" stroke-linecap="round"/>
  <text x="50" y="48" font-family="Arial, sans-serif" font-weight="bold" font-size="35" text-anchor="middle" fill="#1e3a8a">M</text>
  <text x="50" y="78" font-family="Arial, sans-serif" font-weight="bold" font-size="35" text-anchor="middle" fill="#1e3a8a">M</text>
</svg>
