<svg xmlns="http://www.w3.org/2000/svg" viewBox="0 0 400 450">
  <path d="M110,30 C70,30 60,50 60,90 L60,170 C60,210 20,225 20,225 C60,240 60,280 60,320 L60,400 C60,440 70,460 110,460 L110,400 C90,400 85,390 85,370 L85,260 C85,220 50,210 50,210 C50,210 85,200 85,160 L85,90 C85,70 90,60 110,60 Z" fill="#1e3a8a" transform="translate(0,-20)"/>
  <path d="M290,30 C330,30 340,50 340,90 L340,170 C340,210 380,225 380,225 C340,240 340,280 340,320 L340,400 C340,440 330,460 290,460 L290,400 C310,400 315,390 315,370 L315,260 C315,220 350,210 350,210 C350,210 315,200 315,160 L315,90 C315,70 310,60 290,60 Z" fill="#1e3a8a" transform="translate(0,-20)"/>
  <path d="M150,200 L150,70 L200,120 L250,70 L250,200 L215,200 L215,135 L200,150 L185,135 L185,200 Z" fill="#0f172a" transform="translate(0,-20)"/>
  <path d="M150,420 L150,290 L200,340 L250,290 L250,420 L215,420 L215,355 L200,370 L185,355 L185,420 Z" fill="#0f172a" transform="translate(0,-20)"/>
</svg>
